<svg xmlns="http://www.w3.org/2000/svg" xmlns:xlink="http://www.w3.org/1999/xlink" viewBox="0 0 64 64"><defs><style>.cls-1{fill:url(#linear-gradient);}.cls-2{fill:url(#linear-gradient-2);}.cls-3{fill:url(#linear-gradient-3);}.cls-4{fill:url(#linear-gradient-4);}.cls-5{fill:url(#linear-gradient-5);}.cls-6{fill:url(#linear-gradient-6);}.cls-7{fill:url(#linear-gradient-7);}</style><linearGradient id="linear-gradient" x1="9.58" y1="50.17" x2="54.42" y2="50.17" gradientUnits="userSpaceOnUse"><stop offset="0" stop-color="#141c2c"/><stop offset="0.84" stop-color="#090d14"/><stop offset="1" stop-color="#070a0f"/></linearGradient><linearGradient id="linear-gradient-2" x1="16.19" y1="45.77" x2="47.81" y2="14.16" gradientUnits="userSpaceOnUse"><stop offset="0" stop-color="#ffe500"/><stop offset="1" stop-color="#fcb415"/></linearGradient><linearGradient id="linear-gradient-3" x1="3" y1="37.76" x2="61" y2="37.76" gradientUnits="userSpaceOnUse"><stop offset="0" stop-color="#fe7a18"/><stop offset="0.33" stop-color="#fe9215"/><stop offset="1" stop-color="#ffcc0f"/></linearGradient><linearGradient id="linear-gradient-4" x1="25.25" y1="13.15" x2="38.75" y2="13.15" xlink:href="#linear-gradient-3"/><linearGradient id="linear-gradient-5" x1="28.29" y1="10" x2="35.71" y2="10" xlink:href="#linear-gradient-2"/><linearGradient id="linear-gradient-6" x1="44.07" y1="24.86" x2="56.69" y2="24.86" xlink:href="#linear-gradient-3"/><linearGradient id="linear-gradient-7" x1="7.31" y1="24.86" x2="19.93" y2="24.86" xlink:href="#linear-gradient-3"/></defs><g id="Layer_11" data-name="Layer 11"><path class="cls-1" d="M54.41,40.47a1,1,0,0,0-2-.26c-.93,7.22-6.56,13.34-14.14,15.54a2.4,2.4,0,0,0-2.19-1.45H27.91a2.4,2.4,0,0,0-2.19,1.45c-7.58-2.2-13.21-8.32-14.14-15.54a1,1,0,0,0-2,.26c1.05,8.11,7.42,15,15.94,17.3v.86A2.38,2.38,0,0,0,27.91,61h8.18a2.38,2.38,0,0,0,2.38-2.37v-.86C47,55.44,53.36,48.58,54.41,40.47ZM36.47,58.63a.38.38,0,0,1-.38.37H27.91a.38.38,0,0,1-.38-.37v-2a.38.38,0,0,1,.38-.38h8.18a.38.38,0,0,1,.38.38Z"/><path class="cls-2" d="M38,9.87a1,1,0,0,0-1.23,1V21.32h-9.5V10.84a1,1,0,0,0-1.11-1A25.83,25.83,0,0,0,6,35.17a1,1,0,0,0,1,1H57a1,1,0,0,0,1-1A25.86,25.86,0,0,0,38,9.87Z"/><rect class="cls-3" x="3" y="34.17" width="58" height="7.17" rx="1"/><path class="cls-4" d="M32,3a6.76,6.76,0,0,0-6.75,6.75V22.32a1,1,0,0,0,1,1h11.5a1,1,0,0,0,1-1V9.73A6.76,6.76,0,0,0,32,3Z"/><path class="cls-5" d="M32,6.25a3.75,3.75,0,0,0,0,7.5A3.75,3.75,0,0,0,32,6.25Z"/><path class="cls-6" d="M56.67,27a20.52,20.52,0,0,0-2.33-5.12,1,1,0,0,0-.78-.4H47.4a3.32,3.32,0,0,0-2.35,1A3.35,3.35,0,0,0,47.4,28.2h8.29A1,1,0,0,0,56.67,27Z"/><path class="cls-7" d="M16.6,21.52H10.44a1,1,0,0,0-.78.4A20.52,20.52,0,0,0,7.33,27a.87.87,0,0,0,.07.57,1,1,0,0,0,.91.59H16.6a3.32,3.32,0,0,0,2.35-1A3.36,3.36,0,0,0,16.6,21.52Z"/></g></svg>